<svg width="500" height="566" viewBox="0 0 112 116" xmlns="http://www.w3.org/2000/svg">
<g fill="none" fill-rule="evenodd">
<g fill="#21609B">
<path d="M88.708 75.464l-.402 1.042c-6.85 13.34-18.989 21.524-36.303 21.885-8.094.167-15.806-1.91-20.844-4.168C20.287 89.338 11.142 80.279 6.148 70.6c-7.164-13.875-8.456-33.176 6.44-47.592.23 0-1.807 3.126-1.577 3.126l-.41 1.334C-.133 61.074 32.938 89.874 65.086 86.58c7.726-.792 17.578-5.023 23.622-11.116"/>
<path d="M69.254 61.568c8.088.055 16.536-3.725 21.539-9.032-4.377 11.11-17.05 18.251-34.044 15.98-14.23-1.904-27.785-16.223-29.181-30.571-1.021-10.442 2.618-16.674 8.615-24.234-2.084 3.954-2.863 7.003-3.057 8.948-2.278 22.588 18.044 38.79 36.128 38.909"/>
<path d="M89.98 33.512c-1.257 2.884-8.496 8.33-11.693 9.011-12.659 2.697-20.766-3.306-25.013-10.137-.631-1.02-1.798-3.806-2.007-4.515-1.647-5.6-.89-14.07 4.023-18.454-1.48 4.169-1.696 9.011-.917 12.159.472 1.903 1.91 5.226 3.349 7.316 2.618 3.807 4.279 4.732 7.642 6.754 1.515.91 3.14 1.64 3.842 1.84 3.189.939 9.922 3.412 20.775-3.974"/>
</g>
</g>
</svg>